<svg version="1.1" id="Capa_1" x="0px" y="0px" viewBox="0 0 162 49" style="enable-background:new 0 0 162 49;" xml:space="preserve" width="85px">
                    <g>
                        <path class="st6" d="M13.02,32.92 M27.74,32.92 M23.23,9.81l11.13,28.97l0.09,0.49c0,0.24-0.09,0.45-0.27,0.63
                           c-0.18,0.18-0.39,0.27-0.63,0.27h-2.15c-0.51,0-0.88-0.25-1.12-0.76l-2.46-6.44l-0.03-0.08l-7.4-19.69l-0.04-0.05l-7.4,19.69
                           l-0.03,0.08l-2.46,6.44c-0.24,0.51-0.61,0.76-1.12,0.76H7.21c-0.24,0-0.45-0.09-0.63-0.27c-0.18-0.18-0.27-0.39-0.27-0.63
                           l0.09-0.49L17.5,9.79c0.24-0.66,0.72-0.98,1.43-0.98h2.86c0.72,0,1.19,0.33,1.43,0.98L23.23,9.81z M13.06,32.81" style="fill: rgb(34, 34, 34);"></path>
                        <path class="st6" d="M39.13,39.9c-0.18-0.19-0.27-0.44-0.27-0.74V9.95c0-0.33,0.09-0.59,0.27-0.78c0.18-0.19,0.42-0.29,0.72-0.29
                           h10.92c3.4,0,6.06,0.8,7.99,2.39c1.92,1.6,2.89,3.91,2.89,6.96c0,2.27-0.57,4.13-1.7,5.59c-1.13,1.46-2.71,2.48-4.74,3.04
                           l6.89,11.94c0.09,0.18,0.13,0.34,0.13,0.49c0,0.24-0.09,0.45-0.27,0.63c-0.18,0.18-0.39,0.27-0.63,0.27h-1.97
                           c-0.45,0-0.8-0.1-1.05-0.31c-0.25-0.21-0.49-0.51-0.69-0.89l-6.58-11.45h-7.96v11.63c0,0.3-0.1,0.54-0.31,0.74
                           c-0.21,0.19-0.46,0.29-0.76,0.29h-2.15C39.55,40.19,39.31,40.1,39.13,39.9z M50.59,23.86c4.5,0,6.75-1.89,6.75-5.68
                           c0-3.79-2.25-5.68-6.75-5.68h-7.52v11.36H50.59z" style="fill: rgb(34, 34, 34);"></path>
                        <path class="st6" d="M67.94,39.9c-0.18-0.19-0.27-0.44-0.27-0.74V9.91c0-0.3,0.09-0.54,0.27-0.74c0.18-0.19,0.42-0.29,0.72-0.29
                           h2.24c0.33,0,0.58,0.09,0.76,0.27c0.18,0.18,0.27,0.43,0.27,0.76v29.26c0,0.3-0.1,0.54-0.29,0.74c-0.19,0.19-0.44,0.29-0.74,0.29
                           h-2.24C68.36,40.19,68.12,40.1,67.94,39.9z" style="fill: rgb(34, 34, 34);"></path>
                        <path class="st6" d="M79.62,39.9c-0.18-0.19-0.27-0.44-0.27-0.74V9.95c0-0.33,0.09-0.59,0.27-0.78c0.18-0.19,0.42-0.29,0.72-0.29
                           h18.39c0.33,0,0.59,0.1,0.78,0.29c0.19,0.19,0.29,0.46,0.29,0.78v1.61c0,0.3-0.1,0.54-0.29,0.72c-0.19,0.18-0.45,0.27-0.78,0.27
                           H83.46v9.98h14.27c0.33,0,0.59,0.1,0.78,0.29c0.19,0.2,0.29,0.46,0.29,0.78v1.52c0,0.3-0.1,0.54-0.29,0.74
                           c-0.19,0.19-0.45,0.29-0.78,0.29H83.46v10.33h15.61c0.33,0,0.59,0.1,0.78,0.29c0.19,0.19,0.29,0.45,0.29,0.78v1.61
                           c0,0.3-0.1,0.54-0.31,0.74c-0.21,0.19-0.46,0.29-0.76,0.29H80.33C80.03,40.19,79.8,40.1,79.62,39.9z" style="fill: rgb(34, 34, 34);"></path>
                        <path class="st6" d="M106.23,39.9c-0.18-0.19-0.27-0.44-0.27-0.74V9.91c0-0.3,0.09-0.54,0.27-0.74c0.18-0.19,0.42-0.29,0.72-0.29
                           h2.24c0.3,0,0.54,0.1,0.72,0.29c0.18,0.19,0.27,0.44,0.27,0.74v26.53h14.94c0.33,0,0.59,0.1,0.78,0.29
                           c0.19,0.19,0.29,0.44,0.29,0.74v1.7c0,0.3-0.11,0.54-0.31,0.74c-0.21,0.19-0.46,0.29-0.76,0.29h-18.16
                           C106.65,40.19,106.41,40.1,106.23,39.9z" style="fill: rgb(34, 34, 34);"></path>
                        <path class="st6" d="M134.26,32.92 M148.98,32.92 M144.47,9.81l11.13,28.97l0.09,0.49c0,0.24-0.09,0.45-0.27,0.63
                           c-0.18,0.18-0.39,0.27-0.63,0.27h-2.15c-0.51,0-0.88-0.25-1.12-0.76l-2.46-6.44l-0.03-0.08l-7.4-19.69l-0.04-0.05l-7.4,19.69
                           l-0.03,0.08l-2.46,6.44c-0.24,0.51-0.61,0.76-1.12,0.76h-2.15c-0.24,0-0.45-0.09-0.63-0.27c-0.18-0.18-0.27-0.39-0.27-0.63
                           l0.09-0.49l11.09-28.94c0.24-0.66,0.72-0.98,1.43-0.98h2.86c0.72,0,1.19,0.33,1.43,0.98L144.47,9.81z M134.29,32.81" style="fill: rgb(34, 34, 34);"></path>
                    </g>
                </svg>